HIERARCHY
ROOT newVegas:Hips
{
	OFFSET 0.000000 96.479958 0.000000
	CHANNELS 6 Xposition Yposition Zposition Xrotation Yrotation Zrotation
	JOINT newVegas:Pelvis
	{
		OFFSET 0.000000 0.000000 0.000000
		CHANNELS 3 Xrotation Yrotation Zrotation
		JOINT newVegas:LeftUpLeg
		{
			OFFSET 18.735201 -5.666702 -4.541200
			CHANNELS 3 Xrotation Yrotation Zrotation
			JOINT newVegas:LeftLeg
			{
				OFFSET -0.021200 -31.938179 0.493100
				CHANNELS 3 Xrotation Yrotation Zrotation
				JOINT newVegas:LeftFoot
				{
					OFFSET 0.021200 -31.938179 -4.336299
					CHANNELS 3 Xrotation Yrotation Zrotation
					JOINT newVegas:LeftToeBase
					{
						OFFSET 0.943001 -26.722000 15.023500
						CHANNELS 3 Xrotation Yrotation Zrotation
						End Site
						{
							OFFSET 0.000000 30.670183 0.000000
						}
					}
				}
				JOINT newVegas:Left_PantLeg
				{
					OFFSET 0.663870 -9.044666 -1.108900
					CHANNELS 3 Xrotation Yrotation Zrotation
					End Site
					{
						OFFSET 1.415995 20.635357 0.000000
					}
				}
			}
		}
		JOINT newVegas:RightUpLeg
		{
			OFFSET -18.735201 -5.666702 -4.541200
			CHANNELS 3 Xrotation Yrotation Zrotation
			JOINT newVegas:RightLeg
			{
				OFFSET 0.018946 -31.938133 0.493100
				CHANNELS 3 Xrotation Yrotation Zrotation
				JOINT newVegas:RightFoot
				{
					OFFSET -0.018946 -31.938126 -4.336299
					CHANNELS 3 Xrotation Yrotation Zrotation
					JOINT newVegas:RightToeBase
					{
						OFFSET -0.943001 -26.722004 15.023500
						CHANNELS 3 Xrotation Yrotation Zrotation
						End Site
						{
							OFFSET 0.000000 30.670187 0.000000
						}
					}
				}
				JOINT newVegas:Right_PantLeg
				{
					OFFSET -0.661674 -9.044716 -1.108900
					CHANNELS 3 Xrotation Yrotation Zrotation
					End Site
					{
						OFFSET -1.415958 20.635269 0.000000
					}
				}
			}
		}
	}
	JOINT newVegas:Spine
	{
		OFFSET 0.000000 10.199997 -0.299500
		CHANNELS 3 Xrotation Yrotation Zrotation
		JOINT newVegas:Spine1
		{
			OFFSET 0.000000 11.900002 -1.516600
			CHANNELS 3 Xrotation Yrotation Zrotation
			JOINT newVegas:Spine2
			{
				OFFSET 0.000000 13.600006 -2.842500
				CHANNELS 3 Xrotation Yrotation Zrotation
				JOINT newVegas:Neck
				{
					OFFSET 0.000000 9.624100 -2.890100
					CHANNELS 3 Xrotation Yrotation Zrotation
					JOINT newVegas:Head
					{
						OFFSET 0.000000 14.068802 -1.351900
						CHANNELS 3 Xrotation Yrotation Zrotation
						JOINT newVegas:Hair_Back
						{
							OFFSET 0.000000 3.231903 -17.524799
							CHANNELS 3 Xrotation Yrotation Zrotation
							End Site
							{
								OFFSET 0.000000 19.849884 0.000000
							}
						}
						JOINT newVegas:Hair_Front
						{
							OFFSET 0.000000 31.260406 4.573800
							CHANNELS 3 Xrotation Yrotation Zrotation
							JOINT newVegas:Hair_Front1
							{
								OFFSET 0.000000 2.284103 11.993300
								CHANNELS 3 Xrotation Yrotation Zrotation
								JOINT newVegas:Hair_Front2
								{
									OFFSET 0.000000 2.284103 11.993300
									CHANNELS 3 Xrotation Yrotation Zrotation
									End Site
									{
										OFFSET 0.000000 12.208862 0.000000
									}
								}
							}
						}
						JOINT newVegas:Jowel
						{
							OFFSET 0.000000 -7.458206 6.864100
							CHANNELS 3 Xrotation Yrotation Zrotation
							End Site
							{
								OFFSET 0.000000 19.849884 0.000000
							}
						}
					}
				}
				JOINT newVegas:LeftShoulder
				{
					OFFSET 15.263000 10.923401 -0.547700
					CHANNELS 3 Xrotation Yrotation Zrotation
					JOINT newVegas:LeftArm
					{
						OFFSET 25.438599 -2.830597 -13.032500
						CHANNELS 3 Xrotation Yrotation Zrotation
						JOINT newVegas:LeftForeArm
						{
							OFFSET 29.960503 0.000000 0.000000
							CHANNELS 3 Xrotation Yrotation Zrotation
							JOINT newVegas:LeftHand
							{
								OFFSET 27.849251 0.000000 0.000000
								CHANNELS 3 Xrotation Yrotation Zrotation
								JOINT newVegas:LeftHandThumb1
								{
									OFFSET 4.487587 -3.305161 6.305391
									CHANNELS 3 Xrotation Yrotation Zrotation
									JOINT newVegas:LeftHandThumb2
									{
										OFFSET 5.480453 -3.164139 3.164143
										CHANNELS 3 Xrotation Yrotation Zrotation
										JOINT newVegas:LeftHandThumb3
										{
											OFFSET 5.159721 -2.978973 2.978967
											CHANNELS 3 Xrotation Yrotation Zrotation
											End Site
											{
												OFFSET 2.494507 5.926697 1.738678
											}
										}
									}
								}
								JOINT newVegas:LeftHandIndex1
								{
									OFFSET 18.578728 -0.527832 5.208049
									CHANNELS 3 Xrotation Yrotation Zrotation
									JOINT newVegas:LeftHandIndex2
									{
										OFFSET 3.192009 0.000000 0.000000
										CHANNELS 3 Xrotation Yrotation Zrotation
										JOINT newVegas:LeftHandIndex3
										{
											OFFSET 3.835129 0.000000 0.000000
											CHANNELS 3 Xrotation Yrotation Zrotation
											End Site
											{
												OFFSET -0.034599 3.816971 0.371180
											}
										}
									}
								}
								JOINT newVegas:LeftHandMiddle1
								{
									OFFSET 18.476105 0.000000 0.000000
									CHANNELS 3 Xrotation Yrotation Zrotation
									JOINT newVegas:LeftHandMiddle2
									{
										OFFSET 3.324875 0.000000 0.000000
										CHANNELS 3 Xrotation Yrotation Zrotation
										JOINT newVegas:LeftHandMiddle3
										{
											OFFSET 4.596550 0.000000 0.000000
											CHANNELS 3 Xrotation Yrotation Zrotation
											End Site
											{
												OFFSET 0.057701 4.578827 0.399218
											}
										}
									}
								}
								JOINT newVegas:LeftHandRing1
								{
									OFFSET 17.732719 0.121887 -4.201567
									CHANNELS 3 Xrotation Yrotation Zrotation
									JOINT newVegas:LeftHandRing2
									{
										OFFSET 2.733170 0.000000 0.000000
										CHANNELS 3 Xrotation Yrotation Zrotation
										JOINT newVegas:LeftHandRing3
										{
											OFFSET 3.178268 0.000000 0.000000
											CHANNELS 3 Xrotation Yrotation Zrotation
											End Site
											{
												OFFSET 0.119102 3.170624 0.185394
											}
										}
									}
								}
								JOINT newVegas:LeftHandPinky1
								{
									OFFSET 15.989624 -0.606689 -7.535461
									CHANNELS 3 Xrotation Yrotation Zrotation
									JOINT newVegas:LeftHandPinky2
									{
										OFFSET 2.538986 0.000000 0.000000
										CHANNELS 3 Xrotation Yrotation Zrotation
										JOINT newVegas:LeftHandPinky3
										{
											OFFSET 2.593102 0.000000 0.000000
											CHANNELS 3 Xrotation Yrotation Zrotation
											End Site
											{
												OFFSET -0.150902 2.584198 0.152708
											}
										}
									}
								}
							}
							JOINT newVegas:Left_Sleeve
							{
								OFFSET 0.267448 -0.649796 0.577675
								CHANNELS 3 Xrotation Yrotation Zrotation
								End Site
								{
									OFFSET 0.000000 15.991241 0.000000
								}
							}
							JOINT newVegas:Left_CapeC
							{
								OFFSET 15.715958 -8.608795 -6.935905
								CHANNELS 3 Xrotation Yrotation Zrotation
								JOINT newVegas:Left_CapeC1
								{
									OFFSET 0.000000 -8.688499 0.000000
									CHANNELS 3 Xrotation Yrotation Zrotation
									End Site
									{
										OFFSET 0.000000 8.688499 0.000000
									}
								}
							}
						}
						JOINT newVegas:Left_CapeB
						{
							OFFSET 26.118385 -8.608795 -7.079235
							CHANNELS 3 Xrotation Yrotation Zrotation
							JOINT newVegas:Left_CapeB1
							{
								OFFSET 0.000000 -8.688499 0.000000
								CHANNELS 3 Xrotation Yrotation Zrotation
								End Site
								{
									OFFSET 0.000000 8.688499 0.000000
								}
							}
						}
						JOINT newVegas:Left_CapeA
						{
							OFFSET 5.115639 -8.608795 -10.395809
							CHANNELS 3 Xrotation Yrotation Zrotation
							JOINT newVegas:Left_CapeA1
							{
								OFFSET 0.000000 -8.688499 0.000000
								CHANNELS 3 Xrotation Yrotation Zrotation
								End Site
								{
									OFFSET 0.000000 8.688499 0.000000
								}
							}
						}
					}
				}
				JOINT newVegas:RightShoulder
				{
					OFFSET -15.263000 10.923401 -0.547700
					CHANNELS 3 Xrotation Yrotation Zrotation
					JOINT newVegas:RightArm
					{
						OFFSET -25.438599 -2.830597 -13.032500
						CHANNELS 3 Xrotation Yrotation Zrotation
						JOINT newVegas:RightForeArm
						{
							OFFSET -29.960503 0.000000 0.000000
							CHANNELS 3 Xrotation Yrotation Zrotation
							JOINT newVegas:RightHand
							{
								OFFSET -27.849251 0.000000 0.000000
								CHANNELS 3 Xrotation Yrotation Zrotation
								JOINT newVegas:RightHandThumb1
								{
									OFFSET -4.487587 -3.305161 6.305391
									CHANNELS 3 Xrotation Yrotation Zrotation
									JOINT newVegas:RightHandThumb2
									{
										OFFSET -5.480453 -3.164139 3.164143
										CHANNELS 3 Xrotation Yrotation Zrotation
										JOINT newVegas:RightHandThumb3
										{
											OFFSET -5.159721 -2.978973 2.978967
											CHANNELS 3 Xrotation Yrotation Zrotation
											End Site
											{
												OFFSET -2.494507 5.926697 1.738678
											}
										}
									}
								}
								JOINT newVegas:RightHandIndex1
								{
									OFFSET -18.578728 -0.527832 5.208049
									CHANNELS 3 Xrotation Yrotation Zrotation
									JOINT newVegas:RightHandIndex2
									{
										OFFSET -3.192009 0.000000 0.000000
										CHANNELS 3 Xrotation Yrotation Zrotation
										JOINT newVegas:RightHandIndex3
										{
											OFFSET -3.835129 0.000000 0.000000
											CHANNELS 3 Xrotation Yrotation Zrotation
											End Site
											{
												OFFSET 0.034599 3.816971 0.371180
											}
										}
									}
								}
								JOINT newVegas:RightHandMiddle1
								{
									OFFSET -18.476105 0.000000 0.000000
									CHANNELS 3 Xrotation Yrotation Zrotation
									JOINT newVegas:RightHandMiddle2
									{
										OFFSET -3.324875 0.000000 0.000000
										CHANNELS 3 Xrotation Yrotation Zrotation
										JOINT newVegas:RightHandMiddle3
										{
											OFFSET -4.596550 0.000000 0.000000
											CHANNELS 3 Xrotation Yrotation Zrotation
											End Site
											{
												OFFSET -0.057701 4.578827 0.399218
											}
										}
									}
								}
								JOINT newVegas:RightHandRing1
								{
									OFFSET -17.732719 0.121887 -4.201567
									CHANNELS 3 Xrotation Yrotation Zrotation
									JOINT newVegas:RightHandRing2
									{
										OFFSET -2.733170 0.000000 0.000000
										CHANNELS 3 Xrotation Yrotation Zrotation
										JOINT newVegas:RightHandRing3
										{
											OFFSET -3.178268 0.000000 0.000000
											CHANNELS 3 Xrotation Yrotation Zrotation
											End Site
											{
												OFFSET -0.119102 3.170624 0.185394
											}
										}
									}
								}
								JOINT newVegas:RightHandPinky1
								{
									OFFSET -15.989624 -0.606689 -7.535461
									CHANNELS 3 Xrotation Yrotation Zrotation
									JOINT newVegas:RightHandPinky2
									{
										OFFSET -2.538986 0.000000 0.000000
										CHANNELS 3 Xrotation Yrotation Zrotation
										JOINT newVegas:RightHandPinky3
										{
											OFFSET -2.593102 0.000000 0.000000
											CHANNELS 3 Xrotation Yrotation Zrotation
											End Site
											{
												OFFSET 0.150902 2.584198 0.152708
											}
										}
									}
								}
							}
							JOINT newVegas:Right_CapeC
							{
								OFFSET -15.715958 -8.608795 -6.935905
								CHANNELS 3 Xrotation Yrotation Zrotation
								JOINT newVegas:Right_CapeC1
								{
									OFFSET 0.000000 -8.688499 0.000000
									CHANNELS 3 Xrotation Yrotation Zrotation
									End Site
									{
										OFFSET 0.000000 8.688499 0.000000
									}
								}
							}
							JOINT newVegas:Right_Sleeve
							{
								OFFSET -0.267448 -0.649994 0.577675
								CHANNELS 3 Xrotation Yrotation Zrotation
								End Site
								{
									OFFSET 0.000000 15.991302 0.000000
								}
							}
						}
						JOINT newVegas:Right_CapeA
						{
							OFFSET -5.115540 -8.608795 -10.395824
							CHANNELS 3 Xrotation Yrotation Zrotation
							JOINT newVegas:Right_CapeA1
							{
								OFFSET 0.000000 -8.688499 0.000000
								CHANNELS 3 Xrotation Yrotation Zrotation
								End Site
								{
									OFFSET 0.000000 8.688499 0.000000
								}
							}
						}
						JOINT newVegas:Right_CapeB
						{
							OFFSET -26.118187 -8.608795 -7.079266
							CHANNELS 3 Xrotation Yrotation Zrotation
							JOINT newVegas:Right_CapeB1
							{
								OFFSET 0.000000 -8.688499 0.000000
								CHANNELS 3 Xrotation Yrotation Zrotation
								End Site
								{
									OFFSET 0.000000 8.688499 0.000000
								}
							}
						}
					}
				}
				JOINT newVegas:Left_Collar
				{
					OFFSET 18.625099 8.655502 8.828100
					CHANNELS 3 Xrotation Yrotation Zrotation
					JOINT newVegas:Left_Collar1
					{
						OFFSET 14.783401 10.540405 -1.259500
						CHANNELS 3 Xrotation Yrotation Zrotation
						End Site
						{
							OFFSET 0.000000 18.199875 0.000000
						}
					}
				}
				JOINT newVegas:Collar_Back
				{
					OFFSET 0.000000 15.630707 -20.132601
					CHANNELS 3 Xrotation Yrotation Zrotation
					End Site
					{
						OFFSET 0.000000 22.523010 0.000000
					}
				}
				JOINT newVegas:Left_Peck
				{
					OFFSET 17.239599 -5.132599 25.482599
					CHANNELS 3 Xrotation Yrotation Zrotation
					End Site
					{
						OFFSET 0.000000 22.523010 0.000000
					}
				}
				JOINT newVegas:Right_Peck
				{
					OFFSET -17.239599 -5.132202 25.482599
					CHANNELS 3 Xrotation Yrotation Zrotation
					End Site
					{
						OFFSET 0.000000 22.523010 0.000000
					}
				}
				JOINT newVegas:Right_Collar
				{
					OFFSET -18.625099 8.655792 8.828100
					CHANNELS 3 Xrotation Yrotation Zrotation
					JOINT newVegas:Right_Collar1
					{
						OFFSET -14.783401 10.539993 -1.259500
						CHANNELS 3 Xrotation Yrotation Zrotation
						End Site
						{
							OFFSET 0.000000 18.199631 0.000000
						}
					}
				}
			}
		}
		JOINT newVegas:Belly
		{
			OFFSET 0.000000 -6.540398 9.014299
			CHANNELS 3 Xrotation Yrotation Zrotation
			End Site
			{
				OFFSET 0.000000 11.566666 0.000000
			}
		}
	}
	JOINT newVegas:ElvisFacialAnim_Joint
	{
		OFFSET 1.000000 -95.330101 -8.825800
		CHANNELS 3 Xrotation Yrotation Zrotation
		End Site
		{
			OFFSET 0.000000 35.315800 0.000000
		}
	}
}
MOTION
Frames: 4
Frame Time: 0.033333
0.643270 42.870010 2.798353 -14.449390 -2.131052 12.039989 0.000001 -0.000000 0.000001 -109.482086 12.886483 23.046595 129.803975 -0.365314 -2.740554 -8.153193 0.331710 13.827577 -0.000000 -0.000000 0.000000 0.000000 -0.000001 0.000003 -24.313706 59.090637 -50.700959 159.407217 56.531160 12.932775 -58.742707 2.002683 0.790850 0.000001 0.000001 -0.000001 0.000000 -0.000000 -0.000001 9.114590 -2.773602 -0.823965 18.094281 -6.283485 -2.814487 18.094288 -6.283487 -2.814492 -1.912386 1.034617 -0.829555 -1.912387 1.034620 -0.829562 0.000001 -0.000001 0.000000 -1.912383 1.034615 -0.829555 -1.912281 1.034621 -0.829560 0.000001 -0.000001 0.000000 0.000001 -0.000001 0.000000 -3.457536 -13.935152 -5.823541 -15.541027 -16.586720 -57.623594 8.764168 -92.670968 8.763217 65.002746 -7.899313 -36.207427 -3.492397 10.521047 19.423593 1.899677 6.440250 2.185900 0.000003 0.000002 -0.000001 1.045643 7.486514 -14.549391 0.412279 0.824166 -30.961261 -0.000002 0.000000 0.000001 1.129807 7.494567 -27.900192 -0.698004 -2.536142 -27.228691 0.000002 0.000000 -0.000001 0.141496 7.803943 -33.925795 -1.124580 -4.015918 -31.111440 0.000002 -0.000002 -0.000002 -2.167705 7.090100 -30.305870 -2.374726 -8.116234 -43.227547 0.000005 -0.000002 -0.000001 0.000001 -0.000000 0.000000 0.000001 -0.000000 0.000000 0.000000 -0.000001 0.000000 0.000001 0.000001 0.000003 0.000001 0.000001 0.000002 0.000001 0.000001 0.000003 -0.000001 0.000002 0.000002 -3.442795 13.907518 5.670581 -2.630069 34.765424 58.087118 0.240776 53.314606 0.192019 35.571755 13.557257 -26.386686 3.847148 -7.771592 7.066501 2.151240 -6.198806 -2.727850 0.000002 -0.000002 0.000003 1.725045 -7.125759 37.998566 0.127019 -1.142266 17.487031 0.000000 -0.000001 -0.000000 0.126546 -7.706683 29.040568 -0.215059 0.900263 7.941502 0.000002 0.000006 0.000002 1.567595 -8.094887 23.006106 -0.540820 3.374926 18.730592 0.000000 -0.000001 0.000000 2.328684 -9.040187 11.691599 -1.086025 7.477748 22.043245 -0.000000 0.000003 0.000001 -0.000000 0.000001 -0.000000 0.000001 -0.000004 0.000002 -0.000000 0.000001 -0.000001 -0.000002 0.000000 -0.000000 -0.000001 0.000000 -0.000000 -0.000002 0.000000 -0.000000 -0.000001 -0.000000 -0.000000 0.000001 0.000000 -0.000001 0.000001 0.000000 -0.000001 0.000001 0.000000 -0.000001 0.000001 0.000000 -0.000001 0.000001 0.000000 -0.000001 0.000001 0.000000 -0.000001 0.000001 0.000000 -0.000001 0.000000 0.000000 -0.000000 0.000001 -0.000000 0.000001 
0.648115 42.864777 2.801950 -14.462130 -2.104330 12.054326 -0.000001 0.000000 0.000001 -109.483903 12.915350 23.017039 129.798866 -0.360706 -2.740153 -8.138275 0.341654 13.829988 -0.000000 -0.000000 -0.000000 0.000000 -0.000001 0.000000 -23.571381 58.994728 -51.269142 159.274957 56.821529 13.077313 -58.964832 2.136004 0.648995 0.000001 0.000001 -0.000001 0.000000 -0.000000 0.000001 9.113837 -2.797709 -0.822242 18.092003 -6.327538 -2.808962 18.092001 -6.327538 -2.808963 -1.902251 1.044201 -0.838452 -1.902260 1.044205 -0.838453 -0.000002 0.000000 -0.000000 -1.902259 1.044208 -0.838455 -1.902164 1.044197 -0.838453 -0.000000 -0.000000 -0.000000 -0.000002 0.000000 -0.000001 -3.457537 -13.935153 -5.823542 -15.466595 -16.509744 -57.621621 8.664753 -92.699963 8.663397 64.930620 -7.880180 -36.095600 -3.538534 10.486870 19.443341 1.913700 6.434774 2.192602 0.000003 -0.000001 -0.000001 1.018766 7.470469 -14.386458 0.398623 0.829150 -30.722450 -0.000001 0.000000 0.000000 1.111092 7.493054 -27.764606 -0.691168 -2.522444 -27.037727 -0.000003 -0.000000 -0.000001 0.148664 7.822897 -33.817209 -1.106261 -4.001273 -30.937103 -0.000002 0.000001 0.000000 -2.140381 7.123542 -30.203035 -2.350712 -8.110846 -43.046892 -0.000000 -0.000005 -0.000000 -0.000002 -0.000001 -0.000003 -0.000002 -0.000001 -0.000003 -0.000003 -0.000001 -0.000003 0.000002 0.000001 0.000002 0.000002 0.000001 0.000001 0.000002 0.000001 0.000002 0.000000 0.000001 0.000002 -3.442797 13.907517 5.670581 -2.620531 34.841003 58.033365 0.238844 53.312423 0.193734 35.595101 13.560611 -26.313609 3.844287 -7.744441 7.048281 2.144949 -6.186550 -2.729690 -0.000000 -0.000007 0.000002 1.723511 -7.122838 38.032334 0.126843 -1.141974 17.478954 -0.000000 -0.000001 0.000000 0.146790 -7.713898 29.053077 -0.215270 0.901087 7.947502 -0.000000 -0.000000 0.000003 1.557972 -8.081012 23.040856 -0.541561 3.375001 18.740927 0.000001 -0.000001 -0.000000 2.336613 -9.048185 11.750397 -1.085190 7.476826 22.036653 0.000002 -0.000000 0.000001 0.000001 0.000003 0.000001 -0.000000 0.000000 0.000000 0.000001 0.000003 -0.000000 0.000000 0.000001 -0.000000 0.000000 0.000001 0.000001 0.000000 0.000001 -0.000000 0.000000 0.000001 0.000001 0.000001 -0.000000 -0.000000 0.000001 -0.000000 -0.000000 0.000001 -0.000000 -0.000000 0.000001 -0.000000 -0.000000 0.000001 -0.000000 -0.000000 0.000001 -0.000000 -0.000000 0.000001 -0.000000 -0.000000 -0.000000 0.000000 0.000000 -0.000001 0.000000 0.000001 
0.657633 42.862305 2.809109 -14.475053 -2.069914 12.075177 0.000002 0.000000 -0.000001 -109.475235 12.963227 22.971355 129.789946 -0.353794 -2.739498 -8.133642 0.359038 13.831894 0.000000 -0.000000 -0.000000 -0.000001 -0.000000 -0.000000 -22.636567 58.852236 -51.957334 159.102290 57.164319 13.253446 -59.269697 2.300595 0.485354 0.000000 -0.000001 -0.000001 0.000000 -0.000000 -0.000001 9.111973 -2.824215 -0.819608 18.087550 -6.373294 -2.801123 18.087564 -6.373297 -2.801118 -1.892557 1.052828 -0.846733 -1.892540 1.052825 -0.846733 0.000002 0.000000 0.000000 -1.892491 1.052821 -0.846733 -1.892552 1.052827 -0.846734 0.000000 -0.000000 -0.000000 0.000002 0.000000 -0.000000 -3.457537 -13.935153 -5.823541 -15.396269 -16.431477 -57.640868 8.561016 -92.728882 8.559273 64.911502 -7.830672 -35.991627 -3.583356 10.457449 19.464513 1.924675 6.419911 2.202441 -0.000003 0.000001 -0.000003 0.973997 7.454579 -14.220069 0.385010 0.834167 -30.491860 -0.000004 -0.000001 -0.000000 1.077650 7.491679 -27.627096 -0.684659 -2.508942 -26.839795 0.000000 0.000000 -0.000000 0.130429 7.841401 -33.667905 -1.088523 -3.985795 -30.774394 0.000002 -0.000001 0.000000 -2.111079 7.151527 -30.140798 -2.324449 -8.104434 -42.848785 0.000001 -0.000003 -0.000001 -0.000000 0.000000 -0.000000 -0.000000 0.000000 -0.000000 -0.000000 -0.000000 -0.000000 0.000001 -0.000002 -0.000001 0.000001 -0.000002 -0.000001 0.000001 -0.000002 -0.000001 -0.000000 -0.000001 -0.000002 -3.442794 13.907518 5.670582 -2.609931 34.910152 57.987418 0.236755 53.323656 0.195182 35.626687 13.549388 -26.235072 3.845280 -7.722880 7.024548 2.141526 -6.179617 -2.731670 0.000005 -0.000003 0.000001 1.729650 -7.122419 38.060980 0.127174 -1.142572 17.496351 -0.000000 0.000000 -0.000000 0.160122 -7.719345 29.068623 -0.215579 0.901973 7.958040 0.000002 0.000000 -0.000000 1.550553 -8.069935 23.074495 -0.542131 3.375072 18.748651 0.000000 0.000001 -0.000000 2.342943 -9.054311 11.801040 -1.085428 7.477125 22.038601 -0.000000 0.000002 -0.000004 -0.000001 0.000001 0.000000 -0.000000 0.000002 0.000000 -0.000001 0.000000 0.000001 0.000001 0.000002 0.000000 0.000001 0.000002 0.000001 0.000001 0.000002 0.000000 0.000001 0.000002 0.000001 0.000002 -0.000001 0.000000 0.000002 -0.000001 0.000000 0.000002 -0.000001 0.000000 0.000002 -0.000001 0.000000 0.000002 -0.000001 0.000000 0.000002 -0.000001 0.000000 0.000002 -0.000001 0.000000 0.000000 0.000000 -0.000001 0.000002 0.000000 -0.000001 
0.676165 42.855301 2.816931 -14.470026 -2.066270 12.105288 0.000001 -0.000000 0.000001 -109.475215 13.032145 22.946587 129.793784 -0.337006 -2.737085 -8.161068 0.385543 13.839738 0.000000 -0.000000 0.000000 -0.000000 -0.000001 0.000003 -21.550167 59.122322 -53.072571 158.830039 57.723554 13.545061 -59.224277 2.434005 0.449590 0.000002 0.000001 -0.000001 0.000000 -0.000000 0.000000 9.109450 -2.841978 -0.820765 18.082511 -6.404893 -2.793404 18.082494 -6.404889 -2.793405 -1.887281 1.059011 -0.853774 -1.887298 1.059015 -0.853779 -0.000002 -0.000001 0.000000 -1.887211 1.059012 -0.853778 -1.887316 1.059017 -0.853775 0.000001 0.000001 -0.000000 -0.000002 -0.000001 -0.000000 -3.457539 -13.935155 -5.823541 -15.359123 -16.374906 -57.669739 8.460263 -92.754877 8.458307 64.949567 -7.790727 -35.933246 -3.626216 10.434197 19.487080 1.932148 6.396856 2.215894 -0.000001 -0.000003 -0.000003 0.928956 7.437871 -14.039757 0.371440 0.839183 -30.269677 0.000000 -0.000000 -0.000000 1.045157 7.490132 -27.491739 -0.678160 -2.495439 -26.641409 0.000002 0.000000 0.000000 0.088644 7.857555 -33.504390 -1.071220 -3.969708 -30.620271 0.000003 0.000001 -0.000001 -2.087739 7.173516 -30.078531 -2.297617 -8.097602 -42.645406 -0.000000 -0.000007 -0.000001 -0.000001 0.000000 0.000000 -0.000001 0.000000 0.000000 -0.000001 -0.000000 0.000000 -0.000001 0.000000 0.000001 -0.000001 0.000000 0.000000 -0.000001 0.000000 0.000001 -0.000003 -0.000000 0.000001 -3.442796 13.907518 5.670582 -2.606335 34.950426 57.963424 0.235167 53.333956 0.196183 35.664990 13.535260 -26.172503 3.846567 -7.711219 7.009385 2.138143 -6.172432 -2.733441 0.000001 -0.000002 -0.000003 1.734707 -7.123000 38.072373 0.127574 -1.143208 17.514999 -0.000000 -0.000001 0.000000 0.161517 -7.720469 29.080476 -0.215966 0.903024 7.972572 0.000001 -0.000001 0.000001 1.548638 -8.066197 23.099158 -0.542622 3.375120 18.755501 0.000000 0.000001 -0.000000 2.346674 -9.060984 11.809681 -1.088773 7.480702 22.064477 0.000001 0.000002 -0.000001 -0.000000 -0.000001 0.000002 -0.000001 -0.000001 0.000000 -0.000000 -0.000001 -0.000000 0.000002 0.000001 0.000000 0.000002 0.000000 -0.000000 0.000002 0.000001 0.000000 0.000002 -0.000000 -0.000000 0.000001 -0.000000 0.000001 0.000001 -0.000000 0.000001 0.000001 -0.000000 0.000001 0.000001 -0.000000 0.000001 0.000001 -0.000000 0.000001 0.000001 -0.000000 0.000001 0.000001 -0.000000 0.000001 0.000000 0.000000 -0.000001 0.000001 -0.000000 0.000001 
